<svg width="19" height="19" viewBox="0 0 19 19" fill="none" xmlns="http://www.w3.org/2000/svg">
<g filter="url(#filter0_d_9_27)">
<path d="M7.57692 3.57692V1.26923C7.57692 0.850256 7.92718 0.5 8.34615 0.5H13.7308C14.1497 0.5 14.5 0.850256 14.5 1.26923V6.65385C14.5 7.07282 14.1497 7.42308 13.7308 7.42308H11.4231" stroke="currentColor" stroke-linecap="round" stroke-linejoin="round"/>
<path d="M5.26925 10.5C4.8444 10.5 4.50002 10.1556 4.50002 9.73078V4.34617C4.50002 3.92719 4.85025 3.57693 5.26925 3.57693H10.6539C11.0728 3.57693 11.4231 3.92719 11.4231 4.34617V9.73078C11.4231 10.1498 11.0728 10.5 10.6539 10.5H5.26925Z" stroke="currentColor" stroke-linecap="round" stroke-linejoin="round"/>
</g>
<defs>
<filter id="filter0_d_9_27" x="0" y="0" width="19" height="19" filterUnits="userSpaceOnUse" color-interpolation-filters="sRGB">
<feFlood flood-opacity="0" result="BackgroundImageFix"/>
<feColorMatrix in="SourceAlpha" type="matrix" values="0 0 0 0 0 0 0 0 0 0 0 0 0 0 0 0 0 0 127 0" result="hardAlpha"/>
<feOffset dy="4"/>
<feGaussianBlur stdDeviation="2"/>
<feComposite in2="hardAlpha" operator="out"/>
<feColorMatrix type="matrix" values="0 0 0 0 0 0 0 0 0 0 0 0 0 0 0 0 0 0 0.25 0"/>
<feBlend mode="normal" in2="BackgroundImageFix" result="effect1_dropShadow_9_27"/>
<feBlend mode="normal" in="SourceGraphic" in2="effect1_dropShadow_9_27" result="shape"/>
</filter>
</defs>
</svg>
