<svg width="16" height="16" stroke="currentColor" viewBox="0 0 16 16" fill="none" xmlns="http://www.w3.org/2000/svg">
<path d="M15 13.9231C15 14.2087 14.8865 14.4826 14.6846 14.6846C14.4826 14.8865 14.2087 15 13.9231 15H2.07692C1.7913 15 1.51739 14.8865 1.31542 14.6846C1.11346 14.4826 1 14.2087 1 13.9231V5.74923C1.00119 5.46671 1.11335 5.19597 1.31231 4.99538L4.99538 1.31231C5.19597 1.11335 5.46671 1.00119 5.74923 1H13.9231C14.2087 1 14.4826 1.11346 14.6846 1.31542C14.8865 1.51739 15 1.7913 15 2.07692V13.9231Z" stroke="currentColor" stroke-linecap="round" stroke-linejoin="round"/>
<path d="M12 15V10.5C12 10.3674 11.9473 10.2402 11.8536 10.1465C11.7598 10.0527 11.6326 10 11.5 10H5.5C5.36739 10 5.24021 10.0527 5.14645 10.1465C5.05268 10.2402 5 10.3674 5 10.5V15" stroke="currentColor" stroke-linecap="round" stroke-linejoin="round"/>
<path d="M12 2V5.5C12 5.63261 11.9473 5.75979 11.8536 5.85355C11.7598 5.94732 11.6326 6 11.5 6H7.5C7.36739 6 7.24021 5.94732 7.14645 5.85355C7.05268 5.75979 7 5.63261 7 5.5V2" stroke="currentColor" stroke-linecap="round" stroke-linejoin="round"/>
</svg>
