<svg width="16" height="14" viewBox="0 0 16 14" fill="none" xmlns="http://www.w3.org/2000/svg">
<path d="M1 12.04V1.96038C1 1.70578 1.11346 1.46161 1.31542 1.28158C1.51739 1.10155 1.7913 1.00041 2.07692 1.00041H6.05077C6.29677 0.994019 6.53782 1.06293 6.73377 1.19568C6.9297 1.32842 7.06873 1.51699 7.12769 1.72999L7.46154 2.92035H13.9231C14.2087 2.92035 14.4826 3.02148 14.6846 3.20152C14.8865 3.38155 15 3.62572 15 3.88032V12.04C15 12.2947 14.8865 12.5388 14.6846 12.7188C14.4826 12.8989 14.2087 13 13.9231 13H2.07692C1.7913 13 1.51739 12.8989 1.31542 12.7188C1.11346 12.5388 1 12.2947 1 12.04Z" stroke="currentColor" stroke-linecap="round" stroke-linejoin="round"/>
</svg>
